<mxfile host="app.diagrams.net" modified="2023-05-17T09:56:19.968Z" agent="Mozilla/5.0 (Windows NT 10.0; Win64; x64) AppleWebKit/537.36 (KHTML, like Gecko) Chrome/113.0.0.0 Safari/537.36 Edg/113.0.1774.42" etag="S622ZSCCvnDwLvhwAGzM" version="21.3.2" type="github">
  <diagram name="Page-1" id="e3a06f82-3646-2815-327d-82caf3d4e204">
    <mxGraphModel dx="1050" dy="541" grid="1" gridSize="10" guides="1" tooltips="1" connect="1" arrows="1" fold="1" page="1" pageScale="1.5" pageWidth="1169" pageHeight="826" background="none" math="0" shadow="0">
      <root>
        <mxCell id="0" style=";html=1;" />
        <mxCell id="1" style=";html=1;" parent="0" />
        <mxCell id="lFMVf1kBTCyKqZ3C8vbz-44" value="" style="shape=ext;double=1;rounded=0;whiteSpace=wrap;html=1;" vertex="1" parent="1">
          <mxGeometry x="1050" y="570" width="410" height="80" as="geometry" />
        </mxCell>
        <mxCell id="lFMVf1kBTCyKqZ3C8vbz-2" value="" style="verticalLabelPosition=bottom;sketch=0;aspect=fixed;html=1;verticalAlign=top;strokeColor=none;align=center;outlineConnect=0;shape=mxgraph.citrix.database;" vertex="1" parent="1">
          <mxGeometry x="1490" y="260" width="42.5" height="50" as="geometry" />
        </mxCell>
        <mxCell id="lFMVf1kBTCyKqZ3C8vbz-4" value="" style="verticalLabelPosition=bottom;sketch=0;aspect=fixed;html=1;verticalAlign=top;strokeColor=none;align=center;outlineConnect=0;shape=mxgraph.citrix.desktop_web;" vertex="1" parent="1">
          <mxGeometry x="1000" y="227" width="76.5" height="90" as="geometry" />
        </mxCell>
        <mxCell id="lFMVf1kBTCyKqZ3C8vbz-5" value="" style="verticalLabelPosition=bottom;sketch=0;aspect=fixed;html=1;verticalAlign=top;strokeColor=none;align=center;outlineConnect=0;shape=mxgraph.citrix.1u_2u_server;" vertex="1" parent="1">
          <mxGeometry x="1210" y="248.89999999999998" width="100" height="39.1" as="geometry" />
        </mxCell>
        <mxCell id="lFMVf1kBTCyKqZ3C8vbz-6" value="" style="verticalLabelPosition=bottom;sketch=0;aspect=fixed;html=1;verticalAlign=top;strokeColor=none;align=center;outlineConnect=0;shape=mxgraph.citrix.1u_2u_server;" vertex="1" parent="1">
          <mxGeometry x="1200" y="109" width="100" height="39.1" as="geometry" />
        </mxCell>
        <mxCell id="lFMVf1kBTCyKqZ3C8vbz-7" value="Nginx" style="text;html=1;align=center;verticalAlign=middle;resizable=0;points=[];autosize=1;strokeColor=none;fillColor=none;" vertex="1" parent="1">
          <mxGeometry x="1005.25" y="202" width="50" height="30" as="geometry" />
        </mxCell>
        <mxCell id="lFMVf1kBTCyKqZ3C8vbz-8" value="" style="verticalLabelPosition=bottom;sketch=0;aspect=fixed;html=1;verticalAlign=top;strokeColor=none;align=center;outlineConnect=0;shape=mxgraph.citrix.thin_client;" vertex="1" parent="1">
          <mxGeometry x="804.5" y="199" width="71" height="71" as="geometry" />
        </mxCell>
        <mxCell id="lFMVf1kBTCyKqZ3C8vbz-9" value="Web浏览器" style="text;html=1;align=center;verticalAlign=middle;resizable=0;points=[];autosize=1;strokeColor=none;fillColor=none;" vertex="1" parent="1">
          <mxGeometry x="800" y="149" width="80" height="30" as="geometry" />
        </mxCell>
        <mxCell id="lFMVf1kBTCyKqZ3C8vbz-10" value="视频服务&lt;br&gt;（HTTP Restful）" style="text;html=1;align=center;verticalAlign=middle;resizable=0;points=[];autosize=1;strokeColor=none;fillColor=none;" vertex="1" parent="1">
          <mxGeometry x="1190" y="64" width="120" height="40" as="geometry" />
        </mxCell>
        <mxCell id="lFMVf1kBTCyKqZ3C8vbz-11" value="配置服务&lt;br&gt;（HTTP Restful）" style="text;html=1;align=center;verticalAlign=middle;resizable=0;points=[];autosize=1;strokeColor=none;fillColor=none;" vertex="1" parent="1">
          <mxGeometry x="1200" y="203" width="120" height="40" as="geometry" />
        </mxCell>
        <mxCell id="lFMVf1kBTCyKqZ3C8vbz-12" value="数据库&lt;br&gt;（Mysql）" style="text;html=1;align=center;verticalAlign=middle;resizable=0;points=[];autosize=1;strokeColor=none;fillColor=none;" vertex="1" parent="1">
          <mxGeometry x="1480" y="210" width="80" height="40" as="geometry" />
        </mxCell>
        <mxCell id="lFMVf1kBTCyKqZ3C8vbz-13" value="" style="verticalLabelPosition=bottom;sketch=0;aspect=fixed;html=1;verticalAlign=top;strokeColor=none;align=center;outlineConnect=0;shape=mxgraph.citrix.1u_2u_server;" vertex="1" parent="1">
          <mxGeometry x="1210" y="383.9" width="100" height="39.1" as="geometry" />
        </mxCell>
        <mxCell id="lFMVf1kBTCyKqZ3C8vbz-14" value="实时数据服务服务&lt;br&gt;（WebSocket）" style="text;html=1;align=center;verticalAlign=middle;resizable=0;points=[];autosize=1;strokeColor=none;fillColor=none;" vertex="1" parent="1">
          <mxGeometry x="1200" y="338" width="120" height="40" as="geometry" />
        </mxCell>
        <mxCell id="lFMVf1kBTCyKqZ3C8vbz-17" value="" style="endArrow=classic;startArrow=classic;html=1;rounded=0;exitX=1.063;exitY=0.634;exitDx=0;exitDy=0;exitPerimeter=0;" edge="1" parent="1" source="lFMVf1kBTCyKqZ3C8vbz-8" target="lFMVf1kBTCyKqZ3C8vbz-4">
          <mxGeometry width="50" height="50" relative="1" as="geometry">
            <mxPoint x="880" y="300" as="sourcePoint" />
            <mxPoint x="930" y="250" as="targetPoint" />
          </mxGeometry>
        </mxCell>
        <mxCell id="lFMVf1kBTCyKqZ3C8vbz-19" value="" style="endArrow=classic;startArrow=classic;html=1;rounded=0;" edge="1" parent="1" target="lFMVf1kBTCyKqZ3C8vbz-6">
          <mxGeometry width="50" height="50" relative="1" as="geometry">
            <mxPoint x="1076.5" y="235" as="sourcePoint" />
            <mxPoint x="1126.5" y="185" as="targetPoint" />
          </mxGeometry>
        </mxCell>
        <mxCell id="lFMVf1kBTCyKqZ3C8vbz-20" value="" style="endArrow=classic;startArrow=classic;html=1;rounded=0;entryX=0;entryY=0.284;entryDx=0;entryDy=0;entryPerimeter=0;" edge="1" parent="1" target="lFMVf1kBTCyKqZ3C8vbz-5">
          <mxGeometry width="50" height="50" relative="1" as="geometry">
            <mxPoint x="1080" y="270" as="sourcePoint" />
            <mxPoint x="1190" y="290" as="targetPoint" />
          </mxGeometry>
        </mxCell>
        <mxCell id="lFMVf1kBTCyKqZ3C8vbz-21" value="" style="endArrow=classic;startArrow=classic;html=1;rounded=0;" edge="1" parent="1">
          <mxGeometry width="50" height="50" relative="1" as="geometry">
            <mxPoint x="1060" y="320" as="sourcePoint" />
            <mxPoint x="1200" y="390" as="targetPoint" />
          </mxGeometry>
        </mxCell>
        <mxCell id="lFMVf1kBTCyKqZ3C8vbz-22" value="" style="endArrow=classic;startArrow=classic;html=1;rounded=0;" edge="1" parent="1" source="lFMVf1kBTCyKqZ3C8vbz-5">
          <mxGeometry width="50" height="50" relative="1" as="geometry">
            <mxPoint x="1320" y="281" as="sourcePoint" />
            <mxPoint x="1480" y="280" as="targetPoint" />
          </mxGeometry>
        </mxCell>
        <mxCell id="lFMVf1kBTCyKqZ3C8vbz-23" value="" style="endArrow=classic;startArrow=classic;html=1;rounded=0;" edge="1" parent="1" target="lFMVf1kBTCyKqZ3C8vbz-2">
          <mxGeometry width="50" height="50" relative="1" as="geometry">
            <mxPoint x="1320" y="400" as="sourcePoint" />
            <mxPoint x="1370" y="390" as="targetPoint" />
          </mxGeometry>
        </mxCell>
        <mxCell id="lFMVf1kBTCyKqZ3C8vbz-24" value="" style="verticalLabelPosition=bottom;sketch=0;aspect=fixed;html=1;verticalAlign=top;strokeColor=none;align=center;outlineConnect=0;shape=mxgraph.citrix.netscaler_vpx;" vertex="1" parent="1">
          <mxGeometry x="1202" y="491" width="97" height="36" as="geometry" />
        </mxCell>
        <mxCell id="lFMVf1kBTCyKqZ3C8vbz-25" value="串口服务器" style="text;html=1;align=center;verticalAlign=middle;resizable=0;points=[];autosize=1;strokeColor=none;fillColor=none;" vertex="1" parent="1">
          <mxGeometry x="1300" y="497" width="80" height="30" as="geometry" />
        </mxCell>
        <mxCell id="lFMVf1kBTCyKqZ3C8vbz-26" value="" style="endArrow=classic;startArrow=classic;html=1;rounded=0;" edge="1" parent="1" source="lFMVf1kBTCyKqZ3C8vbz-24">
          <mxGeometry width="50" height="50" relative="1" as="geometry">
            <mxPoint x="1100" y="478" as="sourcePoint" />
            <mxPoint x="1260" y="423" as="targetPoint" />
          </mxGeometry>
        </mxCell>
        <mxCell id="lFMVf1kBTCyKqZ3C8vbz-27" value="" style="verticalLabelPosition=bottom;sketch=0;aspect=fixed;html=1;verticalAlign=top;strokeColor=none;align=center;outlineConnect=0;shape=mxgraph.citrix.tablet_1;" vertex="1" parent="1">
          <mxGeometry x="800" y="442" width="61" height="79" as="geometry" />
        </mxCell>
        <mxCell id="lFMVf1kBTCyKqZ3C8vbz-28" value="" style="endArrow=classic;startArrow=classic;html=1;rounded=0;entryX=0;entryY=0;entryDx=0;entryDy=0;" edge="1" parent="1" source="lFMVf1kBTCyKqZ3C8vbz-27" target="lFMVf1kBTCyKqZ3C8vbz-44">
          <mxGeometry width="50" height="50" relative="1" as="geometry">
            <mxPoint x="890" y="300" as="sourcePoint" />
            <mxPoint x="1120" y="580" as="targetPoint" />
          </mxGeometry>
        </mxCell>
        <mxCell id="lFMVf1kBTCyKqZ3C8vbz-29" value="" style="verticalLabelPosition=bottom;sketch=0;aspect=fixed;html=1;verticalAlign=top;strokeColor=none;align=center;outlineConnect=0;shape=mxgraph.citrix.switch;" vertex="1" parent="1">
          <mxGeometry x="1084" y="578" width="92" height="41.5" as="geometry" />
        </mxCell>
        <mxCell id="lFMVf1kBTCyKqZ3C8vbz-31" value="" style="verticalLabelPosition=bottom;sketch=0;aspect=fixed;html=1;verticalAlign=top;strokeColor=none;align=center;outlineConnect=0;shape=mxgraph.citrix.switch;" vertex="1" parent="1">
          <mxGeometry x="1204" y="578" width="92" height="41.5" as="geometry" />
        </mxCell>
        <mxCell id="lFMVf1kBTCyKqZ3C8vbz-32" value="" style="verticalLabelPosition=bottom;sketch=0;aspect=fixed;html=1;verticalAlign=top;strokeColor=none;align=center;outlineConnect=0;shape=mxgraph.citrix.switch;" vertex="1" parent="1">
          <mxGeometry x="1330" y="578" width="92" height="41.5" as="geometry" />
        </mxCell>
        <mxCell id="lFMVf1kBTCyKqZ3C8vbz-33" value="光端机" style="text;html=1;align=center;verticalAlign=middle;resizable=0;points=[];autosize=1;strokeColor=none;fillColor=none;" vertex="1" parent="1">
          <mxGeometry x="1220" y="620" width="60" height="30" as="geometry" />
        </mxCell>
        <mxCell id="lFMVf1kBTCyKqZ3C8vbz-34" value="串口连接" style="text;html=1;align=center;verticalAlign=middle;resizable=0;points=[];autosize=1;strokeColor=none;fillColor=none;" vertex="1" parent="1">
          <mxGeometry x="920" y="534" width="70" height="30" as="geometry" />
        </mxCell>
        <mxCell id="lFMVf1kBTCyKqZ3C8vbz-35" value="HTTP&lt;br&gt;WebSocket" style="text;html=1;align=center;verticalAlign=middle;resizable=0;points=[];autosize=1;strokeColor=none;fillColor=none;" vertex="1" parent="1">
          <mxGeometry x="890" y="260" width="80" height="40" as="geometry" />
        </mxCell>
        <mxCell id="lFMVf1kBTCyKqZ3C8vbz-36" value="海康摄像头" style="shape=ext;double=1;rounded=1;whiteSpace=wrap;html=1;" vertex="1" parent="1">
          <mxGeometry x="1413" y="30" width="120" height="50" as="geometry" />
        </mxCell>
        <mxCell id="lFMVf1kBTCyKqZ3C8vbz-37" value="" style="endArrow=classic;startArrow=classic;html=1;rounded=0;entryX=0.335;entryY=0.988;entryDx=0;entryDy=0;entryPerimeter=0;" edge="1" parent="1" source="lFMVf1kBTCyKqZ3C8vbz-6" target="lFMVf1kBTCyKqZ3C8vbz-36">
          <mxGeometry width="50" height="50" relative="1" as="geometry">
            <mxPoint x="1120" y="310" as="sourcePoint" />
            <mxPoint x="1170" y="260" as="targetPoint" />
          </mxGeometry>
        </mxCell>
        <mxCell id="lFMVf1kBTCyKqZ3C8vbz-38" value="海康SDK" style="text;html=1;align=center;verticalAlign=middle;resizable=0;points=[];autosize=1;strokeColor=none;fillColor=none;" vertex="1" parent="1">
          <mxGeometry x="1320" y="74" width="70" height="30" as="geometry" />
        </mxCell>
        <mxCell id="lFMVf1kBTCyKqZ3C8vbz-39" value="" style="endArrow=classic;startArrow=classic;html=1;rounded=0;" edge="1" parent="1" target="lFMVf1kBTCyKqZ3C8vbz-6">
          <mxGeometry width="50" height="50" relative="1" as="geometry">
            <mxPoint x="875.5" y="231.22663873263684" as="sourcePoint" />
            <mxPoint x="1190" y="170" as="targetPoint" />
          </mxGeometry>
        </mxCell>
        <mxCell id="lFMVf1kBTCyKqZ3C8vbz-40" value="FLV视频流" style="text;html=1;align=center;verticalAlign=middle;resizable=0;points=[];autosize=1;strokeColor=none;fillColor=none;" vertex="1" parent="1">
          <mxGeometry x="1020" y="149" width="80" height="30" as="geometry" />
        </mxCell>
        <mxCell id="lFMVf1kBTCyKqZ3C8vbz-45" value="" style="endArrow=classic;startArrow=classic;html=1;rounded=0;exitX=0.482;exitY=-0.013;exitDx=0;exitDy=0;exitPerimeter=0;" edge="1" parent="1" source="lFMVf1kBTCyKqZ3C8vbz-44" target="lFMVf1kBTCyKqZ3C8vbz-24">
          <mxGeometry width="50" height="50" relative="1" as="geometry">
            <mxPoint x="1120" y="590" as="sourcePoint" />
            <mxPoint x="1170" y="540" as="targetPoint" />
          </mxGeometry>
        </mxCell>
        <mxCell id="lFMVf1kBTCyKqZ3C8vbz-46" value="串口连接" style="text;html=1;align=center;verticalAlign=middle;resizable=0;points=[];autosize=1;strokeColor=none;fillColor=none;" vertex="1" parent="1">
          <mxGeometry x="1240" y="534" width="70" height="30" as="geometry" />
        </mxCell>
        <mxCell id="lFMVf1kBTCyKqZ3C8vbz-47" value="" style="endArrow=classic;startArrow=classic;html=1;rounded=0;" edge="1" parent="1">
          <mxGeometry width="50" height="50" relative="1" as="geometry">
            <mxPoint x="1250" y="700" as="sourcePoint" />
            <mxPoint x="1250" y="650" as="targetPoint" />
          </mxGeometry>
        </mxCell>
        <mxCell id="lFMVf1kBTCyKqZ3C8vbz-48" value="TCP连接" style="text;html=1;align=center;verticalAlign=middle;resizable=0;points=[];autosize=1;strokeColor=none;fillColor=none;" vertex="1" parent="1">
          <mxGeometry x="1254" y="444" width="70" height="30" as="geometry" />
        </mxCell>
      </root>
    </mxGraphModel>
  </diagram>
</mxfile>
